<?xml version="1.0" encoding="utf-8"?>
<!-- Generator: Adobe Illustrator 26.4.1, SVG Export Plug-In . SVG Version: 6.00 Build 0)  -->
<svg version="1.1" id="Artwork_2" xmlns="http://www.w3.org/2000/svg" xmlns:xlink="http://www.w3.org/1999/xlink" x="0px" y="0px"
	 viewBox="0 0 350 171.6" style="enable-background:new 0 0 350 171.6;" xml:space="preserve">
<style type="text/css">
	.st0{fill:#FFFFFF;}
</style>
<path class="st0" d="M142.7,34.6h-35.5V0H350l-12.1,34.5h-54.7v58.1h-44.5V34.5h-51.4v58.1h-44.6L142.7,34.6L142.7,34.6L142.7,34.6z
	 M12.2,92.6h44.6V0H12.1L0,34.5h12.1L12.2,92.6L12.2,92.6L12.2,92.6z"/>
<path class="st0" d="M187.3,98.7v72.8H38c-14.2,0-25.8-11.5-25.8-25.7v-47h44.6v38.2h85.9V98.7H187.3z M238.7,171.6h44.5V98.8h-44.5
	L238.7,171.6L238.7,171.6z"/>
<polygon class="st0" points="296.7,165.3 294.3,165.3 294.3,164.1 300.5,164.1 300.5,165.3 298,165.3 298,171.5 296.7,171.5 "/>
<polygon class="st0" points="308.3,171.5 308.3,166.6 305.9,170.7 305.3,170.7 302.9,166.7 302.9,171.5 301.5,171.5 301.5,164.1 
	302.7,164.1 305.6,169.1 308.5,164.1 309.6,164.1 309.6,171.5 "/>
</svg>
